<svg width="536" height="536" viewBox="0 0 536 536" fill="none" xmlns="http://www.w3.org/2000/svg">
<g clip-path="url(#clip0_144_2)">
<mask id="path-1-inside-1_144_2" fill="white">
<path fill-rule="evenodd" clip-rule="evenodd" d="M149.522 253.874C137.386 249.499 124.343 257.588 122.87 270.405L109.457 387.098C109.038 388.914 108.824 390.752 108.824 392.608C108.824 427.178 183.036 455.202 274.581 455.202C366.126 455.202 440.338 427.178 440.338 392.608C440.338 390.752 440.124 388.914 439.704 387.099L426.315 270.613C424.846 257.833 411.87 249.744 399.749 254.051L280.364 296.476C276.24 297.942 271.735 297.932 267.618 296.447L149.522 253.874Z"/>
</mask>
<path d="M109.457 387.098L134.303 392.837L134.626 391.437L134.79 390.01L109.457 387.098ZM108.824 392.608L134.324 392.608L134.324 392.608L108.824 392.608ZM440.338 392.608L465.838 392.608V392.608H440.338ZM439.704 387.099L414.371 390.011L414.535 391.437L414.858 392.837L439.704 387.099ZM280.364 296.476L288.902 320.504L288.902 320.504L280.364 296.476ZM267.618 296.447L258.97 320.436L267.618 296.447ZM97.537 267.493L84.124 384.186L134.79 390.01L148.203 273.317L97.537 267.493ZM84.6112 381.36C83.7676 385.013 83.3238 388.775 83.3239 392.608L134.324 392.608C134.324 392.662 134.321 392.714 134.315 392.759C134.31 392.804 134.304 392.831 134.303 392.837L84.6112 381.36ZM83.3239 392.608C83.3238 411.091 93.3367 425.7 104.867 435.994C116.416 446.305 131.682 454.425 148.364 460.724C181.912 473.393 226.543 480.702 274.581 480.702V429.702C231.074 429.702 192.826 422.999 166.381 413.013C153.068 407.985 144.059 402.616 138.833 397.95C133.587 393.267 134.324 391.41 134.324 392.608L83.3239 392.608ZM274.581 480.702C322.619 480.702 367.249 473.393 400.797 460.724C417.479 454.425 432.745 446.305 444.294 435.994C455.825 425.7 465.838 411.091 465.838 392.608L414.838 392.608C414.838 391.41 415.574 393.267 410.329 397.95C405.102 402.616 396.094 407.985 382.78 413.013C356.336 422.999 318.088 429.702 274.581 429.702V480.702ZM465.838 392.608C465.838 388.775 465.394 385.013 464.55 381.361L414.858 392.837C414.857 392.832 414.851 392.805 414.846 392.76C414.841 392.714 414.838 392.662 414.838 392.608H465.838ZM465.038 384.187L451.648 267.701L400.982 273.524L414.371 390.011L465.038 384.187ZM391.21 230.023L271.825 272.448L288.902 320.504L408.288 278.079L391.21 230.023ZM271.825 272.448C273.262 271.938 274.831 271.941 276.266 272.459L258.97 320.436C268.639 323.922 279.218 323.946 288.902 320.504L271.825 272.448ZM276.266 272.459L158.17 229.885L140.874 277.863L258.97 320.436L276.266 272.459ZM451.648 267.701C448.307 238.628 418.785 220.224 391.21 230.023L408.288 278.079C404.954 279.263 401.386 277.039 400.982 273.524L451.648 267.701ZM148.203 273.317C147.798 276.841 144.212 279.066 140.874 277.863L158.17 229.885C130.56 219.932 100.888 238.335 97.537 267.493L148.203 273.317Z" fill="#141211" mask="url(#path-1-inside-1_144_2)"/>
<path d="M272.858 68.0957L519.659 157.067C520.635 157.419 521.112 157.9 521.396 158.332C521.729 158.836 521.96 159.537 521.958 160.347C521.956 161.156 521.722 161.857 521.387 162.359C521.101 162.789 520.621 163.269 519.644 163.616L275.123 250.51C274.364 250.78 273.536 250.778 272.779 250.505L25.978 161.533C25.0025 161.182 24.5255 160.7 24.2409 160.269C23.9084 159.765 23.6777 159.063 23.6795 158.254C23.6814 157.444 23.9153 156.744 24.2501 156.241C24.5366 155.811 25.0158 155.332 25.9929 154.984L270.514 68.0904C271.272 67.8208 272.101 67.8227 272.858 68.0957Z" stroke="#141211" stroke-width="25.5"/>
<path fill-rule="evenodd" clip-rule="evenodd" d="M263.911 167.471C270.806 166.039 275.234 159.289 273.802 152.394C272.37 145.5 265.62 141.071 258.725 142.503C183.785 158.068 126.924 172.06 88.7876 193.515C69.3941 204.426 54.168 217.61 43.8231 234.488C37.1063 245.447 32.6974 257.556 30.3561 270.942C21.631 274.992 15.5806 283.832 15.5806 294.084C15.5806 300.143 17.6937 305.709 21.2231 310.084C23.3183 312.681 24.6896 315.933 24.141 319.225L2.31133 450.202C1.36928 455.855 5.72805 461 11.4583 461H70.7915C76.4923 461 80.8432 455.905 79.9501 450.274L58.9638 317.969C58.4728 314.874 59.6799 311.81 61.5514 309.295C64.7122 305.049 66.5828 299.785 66.5828 294.084C66.5828 285.506 62.3477 277.918 55.8545 273.295C57.7791 263.554 61.0482 255.184 65.5654 247.814C73.0567 235.591 84.5777 225.143 101.291 215.74C135.37 196.568 188.163 183.204 263.911 167.471Z" fill="#141211"/>
</g>
<defs>
<clipPath id="clip0_144_2">
<rect width="536" height="536" fill="white"/>
</clipPath>
</defs>
</svg>
