<svg width="536" height="536" viewBox="0 0 536 536" fill="none" xmlns="http://www.w3.org/2000/svg">
<mask id="path-1-inside-1_140_23" fill="white">
<path fill-rule="evenodd" clip-rule="evenodd" d="M50 0C22.3858 0 0 22.3858 0 50V349C0 376.614 22.3858 399 50 399H140C145.523 399 150 403.477 150 409V516.729C150 524.832 159.132 529.571 165.757 524.906L341.99 400.823C343.675 399.637 345.686 399 347.747 399H486C513.614 399 536 376.614 536 349V50C536 22.3858 513.614 0 486 0H50Z"/>
</mask>
<path d="M341.99 400.823L318.386 367.299L341.99 400.823ZM165.757 524.906L189.361 558.43L165.757 524.906ZM41 50C41 45.0294 45.0294 41 50 41V-41C-0.257915 -41 -41 -0.257911 -41 50H41ZM41 349V50H-41V349H41ZM50 358C45.0294 358 41 353.971 41 349H-41C-41 399.258 -0.257904 440 50 440V358ZM140 358H50V440H140V358ZM191 516.729V409H109V516.729H191ZM318.386 367.299L142.153 491.382L189.361 558.43L365.594 434.347L318.386 367.299ZM486 358H347.747V440H486V358ZM495 349C495 353.971 490.971 358 486 358V440C536.258 440 577 399.258 577 349H495ZM495 50V349H577V50H495ZM486 41C490.971 41 495 45.0294 495 50H577C577 -0.2579 536.258 -41 486 -41V41ZM50 41H486V-41H50V41ZM365.594 434.347C360.369 438.026 354.136 440 347.747 440V358C337.236 358 326.981 361.248 318.386 367.299L365.594 434.347ZM109 516.729C109 558.053 155.572 582.22 189.361 558.43L142.153 491.382C162.692 476.921 191 491.611 191 516.729H109ZM140 440C122.879 440 109 426.121 109 409H191C191 380.833 168.167 358 140 358V440Z" fill="#141211" fill-opacity="0.8" mask="url(#path-1-inside-1_140_23)"/>
<path d="M321.345 267.437L398.37 200.872C398.788 200.511 398.788 199.926 398.37 199.564L321.345 133" stroke="#141211" stroke-opacity="0.8" stroke-width="41" stroke-linecap="round"/>
<path d="M213.782 267.873L136.757 201.309C136.339 200.948 136.339 200.362 136.757 200.001L213.782 133.437" stroke="#141211" stroke-opacity="0.8" stroke-width="41" stroke-linecap="round"/>
</svg>
