<svg width="1011" height="1011" viewBox="0 0 1011 1011" fill="none" xmlns="http://www.w3.org/2000/svg">
<mask id="mask0_2_5" style="mask-type:alpha" maskUnits="userSpaceOnUse" x="0" y="0" width="1011" height="1011">
<circle cx="505.421" cy="505.421" r="505.421" fill="#ffcfdf"/>
</mask>
<g mask="url(#mask0_2_5)">
<rect x="-0.246094" y="-0.246826" width="1011.08" height="1011.08" fill="url(#paint0_linear_2_5)"/>
<g filter="url(#filter0_d_2_5)">
<rect x="327.695" y="676.59" width="375.641" height="276.624" fill="#200E04"/>
<path d="M510.688 856.848C548.595 856.848 611.597 859.041 637.043 860.796L640.992 875.274L567.285 912.128L461.989 916.077L367.947 860.891C400.852 856.504 472.782 856.848 510.688 856.848Z" fill="#767676"/>
<path d="M373.084 734.009V942.979L503.259 980.711L632.821 942.979L625.96 734.009H373.084Z" fill="url(#paint1_linear_2_5)"/>
<g filter="url(#filter1_d_2_5)">
<path d="M630.133 756.256C596.147 789.527 581.786 797.046 558.624 808.364C537.353 818.759 520.005 827.517 495.847 826.466C473.698 825.503 450.605 816.448 432.545 804.023C414.938 791.911 396.352 780.614 381.468 763.591C354.706 732.986 338.875 716.921 334.93 689.626C324.614 618.249 304.554 571.815 314.715 500.66C317.378 482.013 350.478 380.553 368.458 368.294C385.18 356.893 399.161 287.178 417.091 281.317L495.585 265.511C495.762 271.016 531.444 263.409 537.495 265.511C545.163 268.175 580.586 308.741 605.511 327.921C630.436 347.101 677.476 496.228 683.867 513.277C705.734 571.61 658.661 639.674 665.756 697.165C667.176 708.673 650.738 736.084 630.133 756.256Z" fill="url(#paint2_linear_2_5)"/>
</g>
<path d="M539.403 633.207C545.579 621.027 526.277 595.755 500.418 599.291C466.641 599.291 465.64 602.594 457.766 610.031C447.923 619.327 451.013 629.672 451.592 633.207C452.171 636.743 475.717 650.36 494.63 654.68C513.544 659.001 531.525 648.745 539.403 633.207Z" fill="url(#paint3_radial_2_5)"/>
<g opacity="0.5">
<path d="M383.296 665.767C375.948 673.932 364.432 677.049 356.818 666.998L336.922 647.948L332.441 618.451L330.738 573.908L334.144 556.008C327.084 553.237 339.5 546.569 339.5 544.386C339.5 540.939 341.663 535.023 346.081 538.459C349.774 541.331 353.155 544.879 356.472 548.196C358.67 550.394 361.759 553.153 364.785 554.084C367.384 554.884 370.303 554.92 372.751 556.008C377.374 558.063 383.261 557.195 387.991 559.087C392.888 561.046 399.166 560.808 404.309 561.743C416.134 563.893 429.555 572.99 429.555 586.296C429.555 589.421 430.045 591.794 429.593 594.955C429.188 597.789 428.412 599.933 427.091 602.575C424.984 606.789 422.667 610.263 420.395 614.351C417.701 619.2 414.822 624.927 410.851 628.898C407.334 632.415 405.37 638.271 401.499 641.368C399.801 642.726 398.767 646.166 397.381 647.948C395.62 650.213 394.157 652.312 391.801 654.144C387.976 657.119 386.363 662.359 383.296 665.767Z" fill="url(#paint4_radial_2_5)"/>
<path d="M552.269 607.069C551.392 602.244 550.309 597.656 548.489 593.208C544.216 582.76 538.3 583.2 534.24 574.515C532.325 570.419 530.959 566.106 529.157 562.141C527.551 558.608 529.191 553.032 527.81 549.235C526.44 545.466 526.42 540 526.42 535.852C526.42 513.242 549.894 533.94 558.482 533.94C565.663 533.94 572.334 531.073 579.204 531.073C587.004 531.073 595.106 530.754 602.447 527.992C608.787 525.608 614.377 523.225 620.997 522.416C626.89 521.696 632.673 521.513 638.636 521.513C645.757 521.513 655.109 520.966 661.704 524.594C671.836 530.167 679.575 535.193 686.38 545.89C695.515 560.246 692.385 581.258 687.51 596.82C683.352 610.093 677.238 621.405 670.35 632.773C664.08 643.12 656.175 647.799 646.803 652.954C634.39 659.783 619.705 657.256 606.357 657.256C599.831 657.256 589.668 653.05 583.896 649.131C576.99 644.44 567.458 645.08 563 635.269C559.005 626.48 554.1 617.141 552.269 607.069Z" fill="url(#paint5_radial_2_5)"/>
<path d="M429.772 471.256C439.717 473.957 463.704 479.699 470.177 489.988C477.491 491.974 476.647 491.833 483.083 494.379C485.295 495.254 489.068 502.298 490.41 504.148C493.32 508.163 491.981 532.08 490.41 537.865C488.764 543.923 481.491 543.575 476.996 545.866C474.355 547.212 471.076 548.508 468.954 550.7C465.443 554.328 460.978 555.998 456.667 558.489C455.337 559.258 453.523 559.266 452.291 560.172C450.83 561.248 445.428 562.139 443.481 562.445C439.249 563.11 387.001 581.339 382.748 580.184C344.703 587.031 352.566 525.809 356.488 523.542C361.596 513.146 353.158 464.78 384.72 467.168C386.23 459.975 405.119 469.484 413.961 468.557C418.943 468.034 424.935 469.942 429.772 471.256Z" fill="url(#paint6_radial_2_5)"/>
<path d="M536.724 517.185C537.975 524.102 546.534 522.713 550.579 520.906C567.13 513.513 570.065 511.634 587.284 511.634C592.496 511.634 601.91 509.93 606.84 509.93C618.452 509.93 629.953 519.828 641.948 515.294C648.482 512.825 650.843 508.797 653.568 501.264C655.774 495.168 653.334 484.263 649.744 479.854C638.083 465.529 621.326 470.521 606.84 470.521C599.704 470.521 592.499 472.717 585.388 472.717C580.979 472.717 572.364 474.382 569.051 478.451C563.426 485.361 549.112 485.205 541.839 489.934C535.245 494.223 535.049 507.928 536.724 517.185Z" fill="url(#paint7_radial_2_5)"/>
<path d="M511.334 777.912C508.182 771.992 504.877 769.483 500.607 764.464C461.826 744.067 463.465 757.594 434.792 752.103C432.785 751.719 429.986 750.78 428.143 751.002C425.508 751.318 422.42 749.318 419.951 749.805C416.713 750.443 414.526 750.156 411.74 752.378C409.043 754.53 407.53 756.412 406.091 759.646C403.541 765.373 400.511 772.193 401.723 779.254C403.373 788.867 409.825 795.868 416.881 803.001C425.349 811.562 433.523 817.668 443.825 823.201C447.777 825.323 452.765 827.271 456.904 828.451C460.618 829.509 464.626 831.219 468.379 831.391C477.885 831.828 487.35 833.34 496.866 834.788C503.191 835.75 511.655 834.846 517.197 832.762C523.548 830.374 526.885 823.33 527.128 816.393C527.414 808.23 520.936 800.919 517.608 793.725C515.272 788.674 514.087 783.085 511.334 777.912Z" fill="url(#paint8_radial_2_5)"/>
<path d="M329.672 539.313C327.069 535.731 322.367 519.923 322.367 515.229C322.367 500.151 309.983 491.808 329.668 484.726C336.347 482.323 349.927 480.273 356.236 478.135C362.245 476.1 378.528 469.324 384.782 469.324C397.593 469.324 414.33 466.402 425.868 472.048C431.37 474.74 431.171 480.745 431.171 488.419C431.171 498.926 434.92 522.381 422.749 523.169C401.195 533.597 394.486 535.831 358.441 546.431C346.192 553.174 338.022 550.805 329.672 539.313Z" fill="url(#paint9_radial_2_5)"/>
<path d="M272.524 498.233C274.63 493.121 281.965 488.651 288.086 484.078C302.533 473.286 304.609 463.429 323.421 476.077C330.222 480.649 341.529 484.277 351.433 487.771C369.169 494.027 386.649 495.965 396.838 505.003C405.837 512.986 420.639 524.613 420.639 533.314C420.639 543.588 418.685 552.27 413.865 562.171C403.121 584.242 414.048 608.482 414.048 630.554C414.048 639.665 419.897 653.026 410.02 661.326C407.269 663.638 400.301 673.959 392.444 674.798C380.045 676.121 378.116 670.944 369.375 670.011C348.217 667.753 334.514 664.135 328.182 655.856C322.751 648.756 311.083 640.888 305.479 633.563C301.313 628.116 296.697 624.417 285.523 620.707C275.352 617.33 273.952 614.651 267.398 610.244C261.998 606.614 264.014 601.356 256.596 598.277C252.095 596.409 239.698 589.569 239.386 587.473C236.431 567.608 241.123 546.703 252.385 527.775C258.398 517.668 268.404 508.237 272.524 498.233Z" fill="url(#paint10_radial_2_5)"/>
<ellipse cx="626.452" cy="588.058" rx="65.8739" ry="54.402" fill="url(#paint11_radial_2_5)" fill-opacity="0.2"/>
<ellipse cx="393.357" cy="581.328" rx="65.8739" ry="54.402" fill="url(#paint12_radial_2_5)" fill-opacity="0.2"/>
</g>
<path d="M522.648 510.975C520.467 530.274 517.414 570.683 522.648 577.924" stroke="#553422" stroke-width="3.11164"/>
<path d="M425.641 503.509C438.098 502.702 454.995 515.41 462.009 523.232C450.825 531.652 439.388 532.311 425.641 532.311C412.133 532.311 398.806 528.887 390.369 518.414C395.541 513.76 412.734 504.345 425.641 503.509Z" fill="white" fill-opacity="0.5"/>
<path d="M411.398 516.577C411.305 525.405 418.503 531.64 427.63 531.737C436.758 531.833 444.359 525.754 444.452 516.926C444.545 508.099 437.221 500.865 428.094 500.769C418.966 500.672 411.491 507.75 411.398 516.577Z" fill="#502E18"/>
<ellipse rx="7.42698" ry="7.42745" transform="matrix(-0.999944 -0.0105493 -0.0105493 0.999944 427.862 516.044)" fill="black"/>
<path d="M463.036 522.306C435.809 495.495 419.03 495.747 385.351 522.313" stroke="#181818" stroke-width="3.36669"/>
<path d="M410.904 496.111C410.904 496.111 426.35 500.425 430.227 500.555L405.132 506.198L390.609 517.049L385.373 522.311L376.488 514.103L385.361 515.917L380.521 511.615L387.422 513.229L385.181 509.196L391.365 510.002L389.304 506.686L396.642 507.588C393.248 504.535 392.889 503.997 392.889 503.997C392.889 503.997 395.554 502.958 400.332 504.308C398.316 501.146 398.936 502.771 398.087 500.681C397.926 500.283 401.243 500.379 405.775 500.937C405.001 499.24 404.492 499.786 404.361 498.71C404.311 498.3 405.562 499.858 412.965 499.516C411.621 498.441 410.904 496.111 410.904 496.111Z" fill="#181818"/>
<path d="M385.352 522.311L392.257 516.743C392.573 519.003 401.239 526.59 406.607 529.331C401.087 529.19 386.668 526.259 385.352 522.311Z" fill="#181818"/>
<path d="M418.064 504.271C418.303 504.537 398.513 511.781 393.248 519.678L385.351 515.115C392.969 510.006 412.597 498.176 418.064 504.271Z" fill="#181818"/>
<path d="M595.81 506.53C583.353 505.723 566.456 518.432 559.442 526.254C570.626 534.673 582.063 535.471 595.81 535.471C609.318 535.471 622.645 531.908 631.082 521.435C625.91 516.781 608.717 507.366 595.81 506.53Z" fill="white" fill-opacity="0.5"/>
<path d="M610.072 519.599C610.166 528.426 602.968 534.661 593.84 534.758C584.713 534.854 577.112 528.775 577.019 519.947C576.926 511.12 584.249 503.886 593.377 503.79C602.505 503.693 609.979 510.771 610.072 519.599Z" fill="#502E18"/>
<ellipse cx="593.588" cy="519.066" rx="7.42698" ry="7.42745" transform="rotate(-0.604443 593.588 519.066)" fill="black"/>
<path d="M558.113 524.962C589.704 494.669 608.131 502.586 635.767 526.261" stroke="#181818" stroke-width="3.36669"/>
<path d="M610.527 499.255C610.527 499.255 595.081 503.569 591.203 503.7L615.655 509.83L630.821 520.193L635.769 526.257L644.942 517.247L636.07 519.062L640.909 514.76L634.008 516.373L636.249 512.34L630.065 513.146L632.126 509.83L624.788 510.732C628.183 507.679 628.541 507.142 628.541 507.142C628.541 507.142 625.876 506.102 621.099 507.452C623.115 504.29 622.494 505.915 623.343 503.826C623.505 503.428 620.188 503.523 615.655 504.081C616.429 502.384 616.938 502.93 617.069 501.854C617.119 501.444 615.868 503.002 608.465 502.66C609.81 501.585 610.527 499.255 610.527 499.255Z" fill="#181818"/>
<path d="M634.707 527.552L628.241 521.14C627.925 523.4 618.762 530.098 613.394 532.838C618.914 532.698 632.55 529.543 634.707 527.552Z" fill="#181818"/>
<path d="M601.549 506.498C601.309 506.764 621.396 512.845 629.283 526.377L636.901 520.371C629.283 515.263 607.016 500.403 601.549 506.498Z" fill="#181818"/>
<path d="M497.666 703.787C473.992 703.35 440.378 700.601 411.909 687.729C446.513 694.931 462.556 695.421 485.677 694.469C487.649 694.471 497.665 697.788 497.665 697.788C499.706 697.224 508.262 694.497 510.413 694.181C538.736 696.004 557.464 693.362 588.197 687.95C562.74 703.634 521.339 704.224 497.666 703.787Z" fill="url(#paint13_radial_2_5)"/>
<path d="M498.889 705.27C463.316 705.34 436.404 697.623 416.019 689.022C444.968 712.145 458.672 730.566 497.129 731.145C535.586 731.724 552.494 717.116 577.858 692.111C559.431 701.311 534.462 705.199 498.889 705.27Z" fill="url(#paint14_radial_2_5)"/>
<path d="M541.197 480.513L546.999 494.705C558.319 490.509 602.227 478.765 612.565 479.858C622.904 480.951 636.144 485.17 642.217 490.034L644.679 486.657C644.679 486.657 638.521 475.672 617.719 468.367C596.917 461.062 551.17 476.395 541.197 480.513Z" fill="#2C1902"/>
<path d="M478.661 478.525L474.102 492.578C462.301 487.988 417.022 477.549 405.708 475.549C395.612 473.765 360.907 479.331 357.681 482.002L356.61 472.234C356.61 472.234 391.312 463.719 407.152 463.719C421.422 463.72 466.683 475.29 478.661 478.525Z" fill="#2C1902"/>
<path d="M408.252 685.942C459.284 711.196 543.762 712.398 591.383 685.701" stroke="#553422" stroke-width="3.11164"/>
<path d="M544.523 631.202C544.523 631.202 545.661 638.195 540.58 642.185C535.499 646.175 526.952 641.943 519.785 643.607C512.617 645.272 514.037 655.042 498.905 655.042C483.773 655.042 486.643 645.559 479.008 642.185C471.353 638.803 468.321 644.287 461.173 642.185C454.242 640.147 452.569 631.202 452.569 631.202" stroke="#553422" stroke-width="3.11164"/>
<path d="M330.94 857.919C463.797 937.421 574.038 903.542 636.284 870.416L893.441 981.691L502.899 1091.4L250.789 995.029C222.149 916.2 198.084 778.416 330.94 857.919Z" fill="url(#paint15_linear_2_5)"/>
<g filter="url(#filter2_d_2_5)">
<path d="M661.407 870.186L637.549 861.353C636.056 860.8 634.395 860.938 633.011 861.724C600.325 880.316 569.25 896.64 518.668 896.64C467.455 896.64 435.619 887.221 370.299 861.27C369.038 860.769 367.613 860.752 366.347 861.24L343.107 870.202C339.163 871.723 338.451 876.962 341.943 879.343C383.399 907.601 446.591 929.917 518.668 929.917C583.872 929.917 625.585 905.679 662.658 879.564C666.181 877.082 665.449 871.682 661.407 870.186Z" fill="url(#paint16_linear_2_5)"/>
</g>
<path d="M604.4 380.766C599.042 317.409 530.424 289.925 510.646 292.017L504.821 284.219C503.596 286.818 500.34 292.321 497.113 293.54C493.08 295.064 476.231 305.46 442.801 317.022C376.21 340.052 355.1 430.441 347.057 495.395C342.773 529.993 331.315 531.555 328.713 559.433C326.111 587.312 329.074 627.949 331.315 636.463C340.349 684.215 334.199 758.601 348.18 787.149C355.984 834.673 383.617 911.346 366.926 959.715C357.068 1004.17 362.24 1006.93 362.24 1032.53C374.608 1107.1 303.715 1275.57 287.135 1289.81L71.0757 1238.86C87.5666 1173.52 168.479 808.772 176.175 735.32C187.916 623.269 255.763 381.434 265.344 353.609C278.842 314.413 352.19 217.558 415.107 181.619C478.023 145.679 539.057 154.956 571.053 161.273C592.384 165.485 638.988 202.324 665.876 225.357C692.763 248.39 745.014 383.365 759.981 422.082C774.948 460.8 781.05 568.618 780.692 589.949C780.333 611.279 784.725 669.362 784.725 688.177C784.725 717.036 798.311 799.138 801.395 808.881C821.62 872.769 834.593 924.336 872.708 979.536L937.237 1226.24L692.097 1289.81L658.451 1076.87L652.17 863.215L656.024 730.612L652.17 676.478C646.793 660.167 643.559 626.656 644.993 615.113C646.786 600.683 645.441 522.593 644.993 515.513C644.545 508.433 639.175 468.64 634.335 458.422C629.495 448.205 608.075 424.213 604.4 380.766Z" fill="url(#paint17_linear_2_5)"/>
</g>
</g>
<defs>
<filter id="filter0_d_2_5" x="19.1511" y="142.163" width="970.011" height="1238.34" filterUnits="userSpaceOnUse" color-interpolation-filters="sRGB">
<feFlood flood-opacity="0" result="BackgroundImageFix"/>
<feColorMatrix in="SourceAlpha" type="matrix" values="0 0 0 0 0 0 0 0 0 0 0 0 0 0 0 0 0 0 127 0" result="hardAlpha"/>
<feOffset dy="38.7748"/>
<feGaussianBlur stdDeviation="25.9623"/>
<feComposite in2="hardAlpha" operator="out"/>
<feColorMatrix type="matrix" values="0 0 0 0 0 0 0 0 0 0 0 0 0 0 0 0 0 0 0.3 0"/>
<feBlend mode="normal" in2="BackgroundImageFix" result="effect1_dropShadow_2_5"/>
<feBlend mode="normal" in="SourceGraphic" in2="effect1_dropShadow_2_5" result="shape"/>
</filter>
<filter id="filter1_d_2_5" x="281.314" y="255.477" width="439.003" height="622.634" filterUnits="userSpaceOnUse" color-interpolation-filters="sRGB">
<feFlood flood-opacity="0" result="BackgroundImageFix"/>
<feColorMatrix in="SourceAlpha" type="matrix" values="0 0 0 0 0 0 0 0 0 0 0 0 0 0 0 0 0 0 127 0" result="hardAlpha"/>
<feOffset dy="20.9513"/>
<feGaussianBlur stdDeviation="15.3037"/>
<feComposite in2="hardAlpha" operator="out"/>
<feColorMatrix type="matrix" values="0 0 0 0 0.239216 0 0 0 0 0.0823529 0 0 0 0 0.00392157 0 0 0 0.3 0"/>
<feBlend mode="normal" in2="BackgroundImageFix" result="effect1_dropShadow_2_5"/>
<feBlend mode="normal" in="SourceGraphic" in2="effect1_dropShadow_2_5" result="shape"/>
</filter>
<filter id="filter2_d_2_5" x="339.692" y="860.884" width="325.226" height="71.1865" filterUnits="userSpaceOnUse" color-interpolation-filters="sRGB">
<feFlood flood-opacity="0" result="BackgroundImageFix"/>
<feColorMatrix in="SourceAlpha" type="matrix" values="0 0 0 0 0 0 0 0 0 0 0 0 0 0 0 0 0 0 127 0" result="hardAlpha"/>
<feOffset dy="2.15331"/>
<feComposite in2="hardAlpha" operator="out"/>
<feColorMatrix type="matrix" values="0 0 0 0 0 0 0 0 0 0 0 0 0 0 0 0 0 0 0.13 0"/>
<feBlend mode="normal" in2="BackgroundImageFix" result="effect1_dropShadow_2_5"/>
<feBlend mode="normal" in="SourceGraphic" in2="effect1_dropShadow_2_5" result="shape"/>
</filter>
<linearGradient id="paint0_linear_2_5" x1="85.8092" y1="149.535" x2="889.459" y2="927.392" gradientUnits="userSpaceOnUse">
<stop stop-color="#DBD8DA"/>
<stop offset="1" stop-color="#EBDEB0"/>
</linearGradient>
<linearGradient id="paint1_linear_2_5" x1="336.951" y1="889.752" x2="643.786" y2="943.121" gradientUnits="userSpaceOnUse">
<stop stop-color="#CD9E90"/>
<stop offset="0.535255" stop-color="#F0B7A5"/>
<stop offset="1" stop-color="#CD9E90"/>
</linearGradient>
<linearGradient id="paint2_linear_2_5" x1="312.952" y1="601.776" x2="665.209" y2="706.053" gradientUnits="userSpaceOnUse">
<stop offset="0.00961029" stop-color="#E6B8AA"/>
<stop offset="1" stop-color="#E2A896"/>
</linearGradient>
<radialGradient id="paint3_radial_2_5" cx="0" cy="0" r="1" gradientUnits="userSpaceOnUse" gradientTransform="translate(495.62 622.054) rotate(5.26335) scale(58.5395 34.1384)">
<stop stop-color="#FFD7CA" stop-opacity="0.36"/>
<stop offset="1" stop-color="#F7A88E" stop-opacity="0"/>
</radialGradient>
<radialGradient id="paint4_radial_2_5" cx="0" cy="0" r="1" gradientUnits="userSpaceOnUse" gradientTransform="translate(361.031 586.724) rotate(48.9079) scale(66.9519 44.7321)">
<stop stop-color="#FAC8B0"/>
<stop offset="1" stop-color="#ECA685" stop-opacity="0"/>
</radialGradient>
<radialGradient id="paint5_radial_2_5" cx="0" cy="0" r="1" gradientUnits="userSpaceOnUse" gradientTransform="translate(609.412 573.287) rotate(90) scale(37.2837 80.4149)">
<stop stop-color="#EAAE90"/>
<stop offset="1" stop-color="#EC9D76" stop-opacity="0"/>
</radialGradient>
<radialGradient id="paint6_radial_2_5" cx="0" cy="0" r="1" gradientUnits="userSpaceOnUse" gradientTransform="translate(433.028 516.82) rotate(86.6493) scale(38.3351 56.5956)">
<stop stop-color="#F0C3B7"/>
<stop offset="1" stop-color="#F0C3B7" stop-opacity="0"/>
</radialGradient>
<radialGradient id="paint7_radial_2_5" cx="0" cy="0" r="1" gradientUnits="userSpaceOnUse" gradientTransform="translate(595.435 496.029) rotate(90) scale(26.3496 58.9728)">
<stop stop-color="#F0C3B7"/>
<stop offset="1" stop-color="#F0C3B7" stop-opacity="0"/>
</radialGradient>
<radialGradient id="paint8_radial_2_5" cx="0" cy="0" r="1" gradientUnits="userSpaceOnUse" gradientTransform="translate(465.402 792.224) rotate(50.5162) scale(75.1506 52.8379)">
<stop stop-color="#FADAD3" stop-opacity="0.43"/>
<stop offset="0.761299" stop-color="#ECA685" stop-opacity="0"/>
</radialGradient>
<radialGradient id="paint9_radial_2_5" cx="0" cy="0" r="1" gradientUnits="userSpaceOnUse" gradientTransform="translate(363.365 492.235) rotate(83.0442) scale(31.848 42.6659)">
<stop stop-color="#FFEFEB" stop-opacity="0.78"/>
<stop offset="1" stop-color="#EBB1A1" stop-opacity="0"/>
</radialGradient>
<radialGradient id="paint10_radial_2_5" cx="0" cy="0" r="1" gradientUnits="userSpaceOnUse" gradientTransform="translate(329.58 572.572) rotate(97.695) scale(102.244 97.4565)">
<stop stop-color="#FDD7CC" stop-opacity="0.9"/>
<stop offset="1" stop-color="#EBB1A1" stop-opacity="0"/>
</radialGradient>
<radialGradient id="paint11_radial_2_5" cx="0" cy="0" r="1" gradientUnits="userSpaceOnUse" gradientTransform="translate(626.452 588.058) rotate(90) scale(54.402 65.8739)">
<stop stop-color="#FF727A"/>
<stop offset="1" stop-color="#FF727A" stop-opacity="0"/>
</radialGradient>
<radialGradient id="paint12_radial_2_5" cx="0" cy="0" r="1" gradientUnits="userSpaceOnUse" gradientTransform="translate(393.357 581.328) rotate(90) scale(54.402 65.8739)">
<stop stop-color="#FF727A"/>
<stop offset="1" stop-color="#FF727A" stop-opacity="0"/>
</radialGradient>
<radialGradient id="paint13_radial_2_5" cx="0" cy="0" r="1" gradientUnits="userSpaceOnUse" gradientTransform="translate(494.185 692.466) rotate(-84.6601) scale(4.74273 67.0848)">
<stop stop-color="#F4857E"/>
<stop offset="1" stop-color="#C16E69"/>
</radialGradient>
<radialGradient id="paint14_radial_2_5" cx="0" cy="0" r="1" gradientUnits="userSpaceOnUse" gradientTransform="translate(489.921 712.466) rotate(89.5271) scale(12.3972 65.0434)">
<stop stop-color="#F28C86"/>
<stop offset="1" stop-color="#E6847E"/>
</radialGradient>
<linearGradient id="paint15_linear_2_5" x1="398.234" y1="1001.76" x2="583.651" y2="1045.14" gradientUnits="userSpaceOnUse">
<stop stop-color="#D0CECD"/>
<stop offset="1" stop-color="#ABABAB"/>
</linearGradient>
<linearGradient id="paint16_linear_2_5" x1="404.119" y1="896.4" x2="639.477" y2="896.4" gradientUnits="userSpaceOnUse">
<stop stop-color="#C9C9C9"/>
<stop offset="1" stop-color="#979797"/>
</linearGradient>
<linearGradient id="paint17_linear_2_5" x1="407.903" y1="155.313" x2="598.007" y2="831.491" gradientUnits="userSpaceOnUse">
<stop stop-color="#3D1804"/>
<stop offset="1" stop-color="#200E04"/>
</linearGradient>
</defs>
</svg>
