<svg width="512" height="512" viewBox="0 0 512 512" fill="none" xmlns="http://www.w3.org/2000/svg">
<path fill-rule="evenodd" clip-rule="evenodd" d="M10 99C4.47715 99 0 103.477 0 109V502C0 507.523 4.47716 512 10 512H223C217.477 512 213 507.523 213 502V446.085H33V131.958H268V214H301V109C301 103.477 296.523 99 291 99H10ZM168 479.557C168 489.512 160.165 497.581 150.5 497.581C140.835 497.581 133 489.512 133 479.557C133 469.603 140.835 461.534 150.5 461.534C160.165 461.534 168 469.603 168 479.557Z" fill="#FFF1F2" fill-opacity="0.8"/>
<path fill-rule="evenodd" clip-rule="evenodd" d="M52 9.99999C52 4.47714 56.4772 0 62 0H502C507.523 0 512 4.47715 512 10V391C512 396.523 507.523 401 502 401H436V365H478V64H314H87H52V9.99999ZM355.5 50C365.165 50 373 42.165 373 32.5C373 22.835 365.165 15 355.5 15C345.835 15 338 22.835 338 32.5C338 42.165 345.835 50 355.5 50ZM425 32.5C425 42.165 417.165 50 407.5 50C397.835 50 390 42.165 390 32.5C390 22.835 397.835 15 407.5 15C417.165 15 425 22.835 425 32.5ZM459.5 50C469.165 50 477 42.165 477 32.5C477 22.835 469.165 15 459.5 15C449.835 15 442 22.835 442 32.5C442 42.165 449.835 50 459.5 50Z" fill="#FFF1F2" fill-opacity="0.8"/>
<path fill-rule="evenodd" clip-rule="evenodd" d="M236 247C236 241.477 240.477 237 246 237H402C407.523 237 412 241.477 412 247V502C412 507.523 407.523 512 402 512H246C240.477 512 236 507.523 236 502V247ZM263 263H386V461H263V263ZM324 496C330.075 496 335 491.075 335 485C335 478.925 330.075 474 324 474C317.925 474 313 478.925 313 485C313 491.075 317.925 496 324 496Z" fill="#FFF1F2" fill-opacity="0.8"/>
</svg>
