<svg width="536" height="536" viewBox="0 0 536 536" fill="none" xmlns="http://www.w3.org/2000/svg">
<g clip-path="url(#clip0_142_74)">
<path d="M264.06 134.659L247.053 123.213L247.053 123.213L264.06 134.659ZM476.545 58.6454L496.442 53.7094L493.469 41.7223L481.482 38.7485L476.545 58.6454ZM199.36 301.183L179.149 304.615L181.615 319.135L196.162 321.432L199.36 301.183ZM234.008 335.831L213.759 339.029L216.056 353.576L230.576 356.042L234.008 335.831ZM400.531 271.131L411.978 288.137L411.978 288.137L400.531 271.131ZM281.066 146.106C307.286 107.151 343.944 87.7141 379.994 79.2275C416.455 70.6442 451.411 73.5314 471.609 78.5423L481.482 38.7485C455.6 32.3278 414.012 29.0986 370.599 39.3184C326.776 49.6349 280.231 73.9207 247.053 123.213L281.066 146.106ZM219.57 297.751C218.78 293.096 219.035 277.209 227.746 250.301C236.232 224.09 252.293 188.856 281.066 146.106L247.053 123.213C216.43 168.71 198.55 207.368 188.739 237.673C179.154 267.281 176.758 290.532 179.149 304.615L219.57 297.751ZM236.836 298.355C225.129 286.647 209.653 282.054 202.557 280.934L196.162 321.432C196.154 321.431 196.317 321.457 196.645 321.534C196.962 321.608 197.378 321.717 197.875 321.866C198.879 322.167 200.086 322.596 201.364 323.162C204.045 324.349 206.317 325.818 207.845 327.346L236.836 298.355ZM207.845 327.346C209.373 328.874 210.842 331.146 212.029 333.827C212.595 335.105 213.024 336.312 213.325 337.316C213.474 337.813 213.583 338.229 213.657 338.546C213.734 338.874 213.76 339.037 213.759 339.029L254.257 332.634C253.137 325.538 248.544 310.062 236.836 298.355L207.845 327.346ZM230.576 356.042C244.659 358.433 267.91 356.037 297.518 346.452C327.823 336.641 366.481 318.761 411.978 288.137L389.085 254.124C346.335 282.898 311.1 298.959 284.89 307.445C257.982 316.156 242.095 316.411 237.44 315.621L230.576 356.042ZM411.978 288.137C461.27 254.96 485.556 208.415 495.872 164.592C506.092 121.179 502.863 79.5908 496.442 53.7094L456.649 63.5814C461.659 83.7798 464.547 118.736 455.963 155.197C447.477 191.247 428.04 227.905 389.085 254.124L411.978 288.137Z" fill="#141211"/>
<circle cx="368.425" cy="167.607" r="43.5" transform="rotate(45 368.425 167.607)" fill="#141211"/>
<path d="M68.6529 318.181C110.219 313.625 163.152 304.708 183.87 303.371C192.297 302.828 193.443 274.987 200.487 249.278C205.377 231.432 214.677 215.4 219.693 204.456C220.905 201.812 218.768 199.034 215.873 199.311L117.164 208.759C115.775 208.892 114.556 209.738 113.946 210.993L64.6675 312.488C63.3007 315.303 65.5422 318.522 68.6529 318.181Z" fill="white" stroke="#141211" stroke-width="31"/>
<path d="M217.146 466.674C221.702 425.109 230.619 372.175 231.956 351.457C232.499 343.03 260.341 341.884 286.05 334.84C303.895 329.95 319.927 320.651 330.871 315.634C333.515 314.422 336.293 316.559 336.016 319.454L326.569 418.164C326.436 419.552 325.589 420.772 324.334 421.381L222.839 470.66C220.024 472.027 216.805 469.785 217.146 466.674Z" fill="white" stroke="#141211" stroke-width="31"/>
<path d="M61.2586 479.159C53.4804 395.013 95.5532 342.334 146.819 393.599C190.659 437.439 137.98 481.634 61.2586 479.159Z" stroke="#141211" stroke-width="41"/>
</g>
<defs>
<clipPath id="clip0_142_74">
<rect width="536" height="536" fill="white"/>
</clipPath>
</defs>
</svg>
