<svg width="605" height="605" viewBox="0 0 605 605" fill="none" xmlns="http://www.w3.org/2000/svg">
<mask id="path-1-inside-1_144_2" fill="white">
<path fill-rule="evenodd" clip-rule="evenodd" d="M178.501 307.874C166.364 303.499 153.322 311.588 151.849 324.405L138.436 441.098C138.017 442.914 137.802 444.751 137.802 446.608C137.802 481.178 212.014 509.202 303.559 509.202C395.104 509.202 469.316 481.178 469.316 446.608C469.316 444.752 469.102 442.914 468.683 441.099L455.294 324.613C453.825 311.833 440.848 303.744 428.728 308.051L309.342 350.476C305.218 351.942 300.714 351.932 296.597 350.447L178.501 307.874Z"/>
</mask>
<path d="M138.436 441.098L163.282 446.837L163.605 445.437L163.769 444.01L138.436 441.098ZM137.802 446.608L163.302 446.608L163.302 446.608L137.802 446.608ZM469.316 446.608L494.816 446.608V446.608H469.316ZM468.683 441.099L443.35 444.011L443.514 445.437L443.837 446.837L468.683 441.099ZM309.342 350.476L317.881 374.504L317.881 374.504L309.342 350.476ZM296.597 350.447L287.949 374.436L296.597 350.447ZM126.516 321.493L113.103 438.186L163.769 444.01L177.182 327.316L126.516 321.493ZM113.59 435.36C112.746 439.013 112.302 442.775 112.302 446.608L163.302 446.608C163.302 446.662 163.299 446.714 163.294 446.759C163.289 446.804 163.283 446.831 163.282 446.837L113.59 435.36ZM112.302 446.608C112.302 465.091 122.315 479.7 133.846 489.994C145.395 500.305 160.661 508.425 177.343 514.724C210.891 527.393 255.521 534.702 303.559 534.702V483.702C260.052 483.702 221.804 476.999 195.36 467.013C182.046 461.985 173.038 456.616 167.811 451.95C162.566 447.267 163.302 445.41 163.302 446.608L112.302 446.608ZM303.559 534.702C351.597 534.702 396.228 527.393 429.776 514.724C446.458 508.425 461.724 500.305 473.273 489.994C484.803 479.7 494.816 465.091 494.816 446.608L443.816 446.608C443.816 445.41 444.553 447.267 439.307 451.95C434.081 456.616 425.072 461.985 411.759 467.013C385.314 476.999 347.066 483.702 303.559 483.702V534.702ZM494.816 446.608C494.816 442.775 494.372 439.013 493.529 435.361L443.837 446.837C443.836 446.832 443.83 446.805 443.825 446.759C443.819 446.714 443.816 446.662 443.816 446.608H494.816ZM494.016 438.187L480.627 321.701L429.961 327.524L443.35 444.011L494.016 438.187ZM420.189 284.023L300.803 326.448L317.881 374.504L437.266 332.079L420.189 284.023ZM300.804 326.448C302.24 325.938 303.81 325.941 305.245 326.458L287.949 374.436C297.618 377.922 308.196 377.946 317.881 374.504L300.804 326.448ZM305.245 326.458L187.149 283.885L169.853 331.863L287.949 374.436L305.245 326.458ZM480.627 321.701C477.285 292.628 447.764 274.224 420.189 284.023L437.266 332.079C433.933 333.263 430.364 331.039 429.961 327.524L480.627 321.701ZM177.182 327.316C176.777 330.841 173.19 333.066 169.853 331.863L187.149 283.885C159.539 273.931 129.867 292.335 126.516 321.493L177.182 327.316Z" fill="black" mask="url(#path-1-inside-1_144_2)"/>
<path d="M301.856 122.096L548.658 211.067C549.633 211.419 550.11 211.9 550.395 212.332C550.727 212.836 550.958 213.537 550.956 214.347C550.954 215.156 550.72 215.857 550.385 216.359C550.099 216.789 549.62 217.269 548.643 217.616L304.121 304.51C303.363 304.78 302.534 304.778 301.777 304.505L54.9763 215.533C54.0007 215.182 53.5238 214.7 53.2392 214.269C52.9067 213.765 52.676 213.063 52.6778 212.254C52.6797 211.444 52.9136 210.744 53.2484 210.241C53.5349 209.811 54.0141 209.332 54.9912 208.984L299.512 122.09C300.271 121.821 301.099 121.823 301.856 122.096Z" stroke="black" stroke-width="25.5"/>
<path fill-rule="evenodd" clip-rule="evenodd" d="M292.89 221.471C299.785 220.039 304.214 213.289 302.782 206.394C301.35 199.5 294.6 195.071 287.705 196.503C212.764 212.068 155.903 226.06 117.767 247.515C98.3737 258.426 83.1476 271.61 72.8027 288.488C66.0859 299.447 61.677 311.556 59.3357 324.942C50.6107 328.992 44.5603 337.832 44.5603 348.084C44.5603 354.143 46.6733 359.709 50.2027 364.084C52.2979 366.681 53.6692 369.933 53.1206 373.225L31.2909 504.202C30.3489 509.855 34.7077 515 40.4379 515H99.7711C105.472 515 109.823 509.905 108.93 504.274L87.9435 371.969C87.4524 368.874 88.6595 365.81 90.531 363.295C93.6918 359.049 95.5624 353.785 95.5624 348.084C95.5624 339.506 91.3273 331.918 84.8341 327.295C86.7587 317.554 90.0278 309.184 94.545 301.814C102.036 289.591 113.557 279.143 130.271 269.74C164.349 250.568 217.143 237.204 292.89 221.471Z" fill="black"/>
</svg>
