<svg width="32" height="32" viewBox="0 0 32 32" fill="none" xmlns="http://www.w3.org/2000/svg">
<mask id="path-1-inside-1_144_2" fill="white">
<path fill-rule="evenodd" clip-rule="evenodd" d="M10.2914 15.6591C9.70125 15.4463 9.06699 15.8397 8.99535 16.463L8.34304 22.138C8.32267 22.2263 8.31227 22.3156 8.31227 22.4058C8.31227 22.4058 8.31227 22.4059 8.31227 22.4059L8.31226 22.4059C8.31225 22.4059 8.31226 22.4059 8.31226 22.4059V22.4059C8.31227 22.4059 8.31227 22.4059 8.31227 22.4059C8.31234 24.087 11.9213 25.4498 16.3731 25.4498C20.825 25.4498 24.434 24.087 24.434 22.4058C24.434 22.3155 24.4236 22.2261 24.4031 22.1377L23.752 16.4732C23.6806 15.8517 23.0496 15.4583 22.4601 15.6678L16.6544 17.7309C16.4539 17.8022 16.2348 17.8017 16.0346 17.7295L10.2914 15.6591Z"/>
</mask>
<path d="M8.34304 22.138L9.55134 22.417L9.56704 22.349L9.57501 22.2796L8.34304 22.138ZM24.4031 22.1377L23.1712 22.2793L23.1792 22.3488L23.1949 22.417L24.4031 22.1377ZM16.6544 17.7309L16.2392 16.5624L16.2392 16.5624L16.6544 17.7309ZM16.0346 17.7295L15.6141 18.8961L15.6141 18.8961L16.0346 17.7295ZM8.31227 22.4059L7.07219 22.406L7.07219 22.406L8.31227 22.4059ZM23.752 16.4732L24.984 16.3316L23.752 16.4732ZM22.4601 15.6678L22.8753 16.8363L22.4601 15.6678ZM8.31226 22.4059L9.47745 22.8303L8.31226 22.4059ZM8.31227 22.4059L7.14707 21.9815L8.31227 22.4059ZM10.2914 15.6591L9.87089 16.8257L10.2914 15.6591ZM7.76338 16.3214L7.11107 21.9964L9.57501 22.2796L10.2273 16.6046L7.76338 16.3214ZM7.13474 21.8591C7.09376 22.0366 7.07219 22.2195 7.07219 22.4058L9.55235 22.4059C9.55235 22.4117 9.55159 22.4159 9.55134 22.417L7.13474 21.8591ZM7.14707 21.9815L7.14706 21.9815L9.47745 22.8303L9.47747 22.8303L7.14707 21.9815ZM7.07219 22.406C7.07223 23.3048 7.55918 24.0152 8.1199 24.5158C8.68155 25.0172 9.42394 25.412 10.2352 25.7184C11.8666 26.3345 14.037 26.6899 16.3731 26.6899V24.2097C14.2574 24.2097 12.3974 23.8838 11.1114 23.3981C10.4639 23.1537 10.0258 22.8926 9.77164 22.6657C9.51655 22.4379 9.55235 22.3476 9.55235 22.4058L7.07219 22.406ZM16.3731 26.6899C18.7092 26.6899 20.8796 26.3344 22.5111 25.7184C23.3224 25.412 24.0648 25.0172 24.6264 24.5157C25.1871 24.0151 25.6741 23.3047 25.6741 22.4058H23.1939C23.1939 22.3476 23.2297 22.4379 22.9746 22.6656C22.7205 22.8926 22.2824 23.1536 21.6349 23.3981C20.3489 23.8838 18.4889 24.2097 16.3731 24.2097V26.6899ZM25.6741 22.4058C25.6741 22.2193 25.6524 22.0362 25.6114 21.8585L23.1949 22.417C23.1947 22.4159 23.1939 22.4117 23.1939 22.4058H25.6741ZM25.6351 21.9961L24.984 16.3316L22.5201 16.6148L23.1712 22.2793L25.6351 21.9961ZM22.0449 14.4993L16.2392 16.5624L17.0697 18.8994L22.8753 16.8363L22.0449 14.4993ZM16.2392 16.5624C16.3091 16.5376 16.3854 16.5377 16.4552 16.5629L15.6141 18.8961C16.0843 19.0656 16.5987 19.0667 17.0697 18.8994L16.2392 16.5624ZM16.4552 16.5629L10.712 14.4925L9.87089 16.8257L15.6141 18.8961L16.4552 16.5629ZM8.31226 23.646C7.62112 23.646 7.07222 23.0845 7.07219 22.406L9.55235 22.4058C9.55232 21.7273 9.00341 21.1658 8.31226 21.1658V23.646ZM24.984 16.3316C24.8215 14.9177 23.3858 14.0227 22.0449 14.4993L22.8753 16.8363C22.7133 16.8939 22.5397 16.7857 22.5201 16.6148L24.984 16.3316ZM7.14706 21.9815C6.85245 22.7904 7.45141 23.646 8.31226 23.646V21.1658C9.17311 21.1658 9.77206 22.0214 9.47745 22.8303L7.14706 21.9815ZM7.07219 22.4058C7.07219 22.2618 7.09728 22.1182 7.14707 21.9815L9.47747 22.8303C9.52726 22.6935 9.55235 22.5499 9.55235 22.4059L7.07219 22.4058ZM10.2273 16.6046C10.2076 16.776 10.0332 16.8842 9.87089 16.8257L10.712 14.4925C9.36931 14.0084 7.92636 14.9034 7.76338 16.3214L10.2273 16.6046Z" fill="black" mask="url(#path-1-inside-1_144_2)"/>
<path d="M16.2905 6.62456L28.2926 10.9513C28.3401 10.9684 28.3632 10.9918 28.3771 11.0128C28.3933 11.0373 28.4045 11.0714 28.4044 11.1108C28.4043 11.1502 28.3929 11.1842 28.3766 11.2087C28.3627 11.2296 28.3394 11.2529 28.2919 11.2698L16.4007 15.4955C16.3638 15.5086 16.3235 15.5085 16.2867 15.4952L4.2846 11.1685C4.23716 11.1514 4.21396 11.128 4.20012 11.107C4.18395 11.0825 4.17273 11.0484 4.17282 11.009C4.17291 10.9696 4.18429 10.9356 4.20057 10.9111C4.2145 10.8902 4.23781 10.8669 4.28532 10.85L16.1765 6.6243C16.2134 6.61119 16.2537 6.61128 16.2905 6.62456Z" stroke="black" stroke-width="1.24008"/>
<path fill-rule="evenodd" clip-rule="evenodd" d="M15.8546 11.4572C16.1899 11.3876 16.4053 11.0593 16.3356 10.724C16.266 10.3887 15.9377 10.1734 15.6024 10.243C11.958 10.9999 9.19283 11.6803 7.33825 12.7237C6.39514 13.2543 5.65468 13.8955 5.1516 14.7163C4.82497 15.2492 4.61057 15.8381 4.4967 16.489C4.07236 16.686 3.77809 17.1158 3.77809 17.6145C3.77809 17.9091 3.88083 18.1797 4.05244 18.3925C4.15431 18.5188 4.22099 18.6769 4.19431 18.837L3.13271 25.2066C3.0869 25.4814 3.29887 25.7317 3.57753 25.7317H6.46294C6.74018 25.7317 6.95176 25.4839 6.90833 25.2101L5.88777 18.7761C5.86389 18.6255 5.9226 18.4765 6.01363 18.3542C6.16737 18.1477 6.25835 17.8917 6.25835 17.6145C6.25835 17.1974 6.05242 16.8283 5.73669 16.6035C5.83028 16.1298 5.98926 15.7228 6.20894 15.3643C6.57325 14.7699 7.13353 14.2618 7.94632 13.8045C9.60357 12.8722 12.171 12.2223 15.8546 11.4572Z" fill="black"/>
</svg>
