<svg width="617" height="617" viewBox="0 0 617 617" fill="none" xmlns="http://www.w3.org/2000/svg">
<mask id="path-1-inside-1_140_23" fill="white">
<path fill-rule="evenodd" clip-rule="evenodd" d="M90 46C62.3858 46 40 68.3858 40 96V395C40 422.614 62.3858 445 90 445H180C185.523 445 190 449.477 190 455V562.729C190 570.832 199.132 575.57 205.757 570.906L381.99 446.823C383.675 445.637 385.686 445 387.747 445H526C553.614 445 576 422.614 576 395V96C576 68.3858 553.614 46 526 46H90Z"/>
</mask>
<path d="M381.99 446.823L358.386 413.299L381.99 446.823ZM205.757 570.906L229.361 604.43L205.757 570.906ZM81 96C81 91.0294 85.0294 87 90 87V5C39.7421 5 -1 45.7421 -1 96H81ZM81 395V96H-1V395H81ZM90 404C85.0294 404 81 399.971 81 395H-1C-1 445.258 39.7421 486 90 486V404ZM180 404H90V486H180V404ZM231 562.729V455H149V562.729H231ZM358.386 413.299L182.153 537.382L229.361 604.43L405.594 480.348L358.386 413.299ZM526 404H387.747V486H526V404ZM535 395C535 399.971 530.971 404 526 404V486C576.258 486 617 445.258 617 395H535ZM535 96V395H617V96H535ZM526 87C530.971 87 535 91.0294 535 96H617C617 45.7421 576.258 5 526 5V87ZM90 87H526V5H90V87ZM405.594 480.348C400.369 484.026 394.136 486 387.747 486V404C377.236 404 366.981 407.248 358.386 413.299L405.594 480.348ZM149 562.729C149 604.053 195.572 628.22 229.361 604.43L182.153 537.382C202.692 522.921 231 537.611 231 562.729H149ZM180 486C162.879 486 149 472.121 149 455H231C231 426.833 208.167 404 180 404V486Z" fill="black" mask="url(#path-1-inside-1_140_23)"/>
<path d="M361.345 313.437L438.37 246.872C438.788 246.511 438.788 245.926 438.37 245.564L361.345 179" stroke="black" stroke-width="41" stroke-linecap="round"/>
<path d="M253.782 313.873L176.757 247.309C176.339 246.948 176.339 246.362 176.757 246.001L253.782 179.437" stroke="black" stroke-width="41" stroke-linecap="round"/>
</svg>
