<svg width="32" height="32" viewBox="0 0 32 32" fill="none" xmlns="http://www.w3.org/2000/svg">
<mask id="path-1-inside-1_140_23" fill="white">
<path fill-rule="evenodd" clip-rule="evenodd" d="M4.66778 2.38574C3.2356 2.38574 2.07458 3.54676 2.07458 4.97894V20.4862C2.07458 21.9184 3.2356 23.0794 4.66778 23.0794H9.33549C9.62193 23.0794 9.85413 23.3116 9.85413 23.5981V29.1853C9.85413 29.6056 10.3277 29.8513 10.6713 29.6094L19.8115 23.174C19.8989 23.1124 20.0032 23.0794 20.1101 23.0794H27.2804C28.7126 23.0794 29.8736 21.9184 29.8736 20.4862V4.97893C29.8736 3.54675 28.7126 2.38574 27.2804 2.38574H4.66778Z"/>
</mask>
<path d="M19.8115 23.174L19.0343 22.0701L19.8115 23.174ZM3.42458 4.97894C3.42458 4.29234 3.98118 3.73574 4.66778 3.73574V1.03574C2.49001 1.03574 0.724585 2.80117 0.724585 4.97894H3.42458ZM3.42458 20.4862V4.97894H0.724585V20.4862H3.42458ZM4.66778 21.7294C3.98118 21.7294 3.42458 21.1728 3.42458 20.4862H0.724585C0.724585 22.664 2.49002 24.4294 4.66778 24.4294V21.7294ZM9.33549 21.7294H4.66778V24.4294H9.33549V21.7294ZM11.2041 29.1853V23.5981H8.50413V29.1853H11.2041ZM19.0343 22.0701L9.89415 28.5055L11.4485 30.7132L20.5887 24.2778L19.0343 22.0701ZM27.2804 21.7294H20.1101V24.4294H27.2804V21.7294ZM28.5236 20.4862C28.5236 21.1728 27.967 21.7294 27.2804 21.7294V24.4294C29.4582 24.4294 31.2236 22.664 31.2236 20.4862H28.5236ZM28.5236 4.97893V20.4862H31.2236V4.97893H28.5236ZM27.2804 3.73574C27.967 3.73574 28.5236 4.29234 28.5236 4.97893H31.2236C31.2236 2.80117 29.4582 1.03574 27.2804 1.03574V3.73574ZM4.66778 3.73574H27.2804V1.03574H4.66778V3.73574ZM20.5887 24.2778C20.4486 24.3765 20.2814 24.4294 20.1101 24.4294V21.7294C19.7249 21.7294 19.3492 21.8484 19.0343 22.0701L20.5887 24.2778ZM8.50413 29.1853C8.50413 30.6994 10.2105 31.5849 11.4485 30.7132L9.89415 28.5055C10.445 28.1177 11.2041 28.5117 11.2041 29.1853H8.50413ZM9.33549 24.4294C8.87634 24.4294 8.50413 24.0572 8.50413 23.5981H11.2041C11.2041 22.566 10.3675 21.7294 9.33549 21.7294V24.4294Z" fill="black" mask="url(#path-1-inside-1_140_23)"/>
<path d="M18.7407 16.256L22.7355 12.8038C22.7572 12.785 22.7572 12.7547 22.7355 12.7359L18.7407 9.28365" stroke="black" stroke-width="1.35" stroke-linecap="round"/>
<path d="M13.1621 16.2787L9.16729 12.8264C9.14562 12.8077 9.14562 12.7773 9.16729 12.7586L13.1621 9.30629" stroke="black" stroke-width="1.35" stroke-linecap="round"/>
</svg>
