<svg width="81" height="81" viewBox="0 0 81 81" fill="none" xmlns="http://www.w3.org/2000/svg">
<mask id="mask0_153_56" style="mask-type:alpha" maskUnits="userSpaceOnUse" x="0" y="0" width="81" height="81">
<circle cx="40.4213" cy="40.4213" r="40.4213" fill="#CAA8A8"/>
</mask>
<g mask="url(#mask0_153_56)">
<g filter="url(#filter0_d_153_56)">
<rect x="26.2075" y="54.1106" width="30.0421" height="22.1231" fill="#200E04"/>
<path d="M40.8421 68.5269C43.8737 68.5269 48.9123 68.7023 50.9474 68.8427L51.2632 70.0006L45.3684 72.9479L36.9473 73.2637L29.4263 68.8503C32.0579 68.4994 37.8105 68.5269 40.8421 68.5269Z" fill="#767676"/>
<path d="M29.8369 58.7026V75.4151L40.2477 78.4328L50.6095 75.4151L50.0608 58.7026H29.8369Z" fill="url(#paint0_linear_153_56)"/>
<g filter="url(#filter1_d_153_56)">
<path d="M50.3944 60.4818C47.6764 63.1427 46.5279 63.744 44.6755 64.6492C42.9743 65.4805 41.5869 66.181 39.6548 66.0969C37.8834 66.0199 36.0366 65.2957 34.5923 64.3021C33.1841 63.3333 31.6977 62.4299 30.5073 61.0685C28.3671 58.6208 27.101 57.336 26.7855 55.1531C25.9604 49.4447 24.3561 45.7311 25.1687 40.0404C25.3817 38.5491 28.0289 30.4348 29.4669 29.4544C30.8042 28.5426 31.9223 22.9671 33.3563 22.4984L39.6339 21.2343C39.6481 21.6746 42.5017 21.0662 42.9856 21.2343C43.5989 21.4474 46.4319 24.6916 48.4252 26.2256C50.4186 27.7595 54.1807 39.686 54.6918 41.0495C56.4406 45.7147 52.676 51.1581 53.2434 55.756C53.357 56.6764 52.0423 58.8686 50.3944 60.4818Z" fill="url(#paint1_linear_153_56)"/>
</g>
<path d="M43.1384 50.641C43.6323 49.6668 42.0886 47.6457 40.0205 47.9285C37.3192 47.9285 37.2391 48.1927 36.6094 48.7874C35.8222 49.5309 36.0693 50.3583 36.1156 50.641C36.1619 50.9237 38.045 52.0127 39.5576 52.3583C41.0702 52.7038 42.5083 51.8836 43.1384 50.641Z" fill="url(#paint2_radial_153_56)"/>
<g opacity="0.5">
<path d="M30.6535 53.2446C30.0659 53.8976 29.1449 54.1469 28.536 53.3431L26.9448 51.8196L26.5864 49.4605L26.4502 45.8982L26.7226 44.4667C26.158 44.2451 27.151 43.7117 27.151 43.5372C27.151 43.2615 27.3239 42.7884 27.6773 43.0632C27.9726 43.2929 28.2431 43.5766 28.5083 43.8419C28.6841 44.0177 28.9311 44.2383 29.1731 44.3128C29.381 44.3767 29.6144 44.3796 29.8102 44.4667C30.18 44.631 30.6508 44.5616 31.029 44.7129C31.4207 44.8695 31.9228 44.8505 32.334 44.9253C33.2798 45.0972 34.3531 45.8248 34.3531 46.8889C34.3531 47.1389 34.3923 47.3286 34.3562 47.5814C34.3238 47.8081 34.2618 47.9796 34.1561 48.1908C33.9876 48.5279 33.8022 48.8057 33.6206 49.1327C33.4051 49.5205 33.1749 49.9785 32.8573 50.2961C32.576 50.5773 32.419 51.0456 32.1094 51.2933C31.9736 51.4019 31.8909 51.6771 31.78 51.8196C31.6392 52.0007 31.5222 52.1686 31.3337 52.3151C31.0278 52.5531 30.8988 52.9721 30.6535 53.2446Z" fill="url(#paint3_radial_153_56)"/>
<path d="M44.1674 48.5503C44.0972 48.1644 44.0106 47.7974 43.8651 47.4418C43.5233 46.6062 43.0502 46.6413 42.7255 45.9467C42.5724 45.6192 42.4631 45.2742 42.319 44.9571C42.1906 44.6746 42.3217 44.2287 42.2113 43.925C42.1017 43.6236 42.1001 43.1864 42.1001 42.8547C42.1001 41.0464 43.9775 42.7018 44.6642 42.7018C45.2386 42.7018 45.7721 42.4724 46.3215 42.4724C46.9453 42.4724 47.5933 42.4469 48.1804 42.2261C48.6875 42.0354 49.1345 41.8448 49.664 41.7801C50.1352 41.7225 50.5978 41.7079 51.0746 41.7079C51.6441 41.7079 52.3921 41.6641 52.9195 41.9543C53.7298 42.4 54.3487 42.8019 54.893 43.6574C55.6235 44.8056 55.3732 46.486 54.9833 47.7306C54.6508 48.7921 54.1619 49.6968 53.6109 50.606C53.1095 51.4335 52.4773 51.8076 51.7278 52.22C50.7351 52.7661 49.5606 52.564 48.4931 52.564C47.9712 52.564 47.1584 52.2276 46.6968 51.9142C46.1445 51.5391 45.3821 51.5902 45.0256 50.8056C44.7061 50.1027 44.3138 49.3558 44.1674 48.5503Z" fill="url(#paint4_radial_153_56)"/>
<path d="M34.3697 37.6885C35.1651 37.9046 37.0835 38.3638 37.6011 39.1866C38.186 39.3455 38.1186 39.3342 38.6333 39.5378C38.8102 39.6078 39.112 40.1711 39.2192 40.3191C39.452 40.6402 39.3449 42.5529 39.2192 43.0156C39.0876 43.5001 38.506 43.4723 38.1465 43.6555C37.9353 43.7632 37.673 43.8668 37.5033 44.0422C37.2225 44.3322 36.8654 44.4658 36.5206 44.6651C36.4143 44.7265 36.2692 44.7272 36.1707 44.7997C36.0539 44.8857 35.6219 44.957 35.4661 44.9814C35.1277 45.0346 30.9491 46.4925 30.609 46.4001C27.5663 46.9477 28.1951 42.0514 28.5088 41.8701C28.9173 41.0387 28.2425 37.1706 30.7667 37.3616C30.8874 36.7863 32.3981 37.5468 33.1052 37.4727C33.5036 37.4309 33.9829 37.5835 34.3697 37.6885Z" fill="url(#paint5_radial_153_56)"/>
<path d="M42.9233 41.3621C43.0234 41.9153 43.7079 41.8041 44.0313 41.6597C45.355 41.0684 45.5898 40.9182 46.9668 40.9182C47.3837 40.9182 48.1365 40.7818 48.5309 40.7818C49.4595 40.7818 50.3793 41.5735 51.3386 41.2108C51.8612 41.0133 52.05 40.6913 52.2679 40.0888C52.4443 39.6013 52.2492 38.7291 51.9621 38.3765C51.0296 37.2309 49.6893 37.6301 48.5309 37.6301C47.9602 37.6301 47.3839 37.8057 46.8152 37.8057C46.4626 37.8057 45.7736 37.9388 45.5087 38.2643C45.0588 38.8169 43.914 38.8044 43.3324 39.1827C42.805 39.5256 42.7894 40.6217 42.9233 41.3621Z" fill="url(#paint6_radial_153_56)"/>
<path d="M40.8926 62.2136C40.6405 61.7401 40.3763 61.5394 40.0348 61.1381C36.9332 59.5068 37.0643 60.5886 34.7712 60.1495C34.6107 60.1188 34.3868 60.0436 34.2394 60.0614C34.0287 60.0867 33.7817 59.9267 33.5843 59.9656C33.3253 60.0167 33.1504 59.9938 32.9276 60.1715C32.7119 60.3435 32.5909 60.4941 32.4758 60.7527C32.2718 61.2107 32.0296 61.7562 32.1265 62.3208C32.2584 63.0897 32.7744 63.6496 33.3387 64.2201C34.016 64.9047 34.6697 65.3931 35.4936 65.8355C35.8097 66.0053 36.2086 66.1611 36.5396 66.2554C36.8366 66.34 37.1571 66.4768 37.4573 66.4906C38.2175 66.5255 38.9745 66.6464 39.7356 66.7622C40.2414 66.8392 40.9184 66.7669 41.3616 66.6002C41.8694 66.4092 42.1364 65.8459 42.1558 65.2911C42.1786 64.6383 41.6606 64.0535 41.3945 63.4782C41.2076 63.0743 41.1128 62.6272 40.8926 62.2136Z" fill="url(#paint7_radial_153_56)"/>
<path d="M26.3648 43.1315C26.1566 42.845 25.7806 41.5808 25.7806 41.2053C25.7806 39.9995 24.7902 39.3323 26.3645 38.7659C26.8987 38.5737 27.9847 38.4097 28.4893 38.2387C28.9699 38.076 30.2721 37.534 30.7723 37.534C31.7968 37.534 33.1354 37.3004 34.0581 37.7519C34.4981 37.9673 34.4823 38.4475 34.4823 39.0612C34.4823 39.9015 34.7821 41.7773 33.8087 41.8403C32.0849 42.6744 31.5484 42.853 28.6656 43.7007C27.686 44.24 27.0326 44.0506 26.3648 43.1315Z" fill="url(#paint8_radial_153_56)"/>
<path d="M21.7945 39.8461C21.9629 39.4372 22.5496 39.0797 23.0391 38.714C24.1945 37.8509 24.3605 37.0626 25.8651 38.0741C26.4089 38.4398 27.3132 38.7299 28.1053 39.0093C29.5237 39.5097 30.9217 39.6647 31.7366 40.3875C32.4562 41.0259 33.6401 41.9558 33.6401 42.6516C33.6401 43.4733 33.4838 44.1677 33.0983 44.9595C32.239 46.7247 33.1129 48.6633 33.1129 50.4285C33.1129 51.1571 33.5807 52.2257 32.7908 52.8895C32.5708 53.0744 32.0135 53.8998 31.3852 53.9669C30.3935 54.0727 30.2393 53.6587 29.5402 53.5841C27.8481 53.4035 26.7522 53.1141 26.2458 52.452C25.8114 51.8842 24.8783 51.2549 24.4301 50.6691C24.0969 50.2335 23.7277 49.9376 22.8341 49.641C22.0207 49.3709 21.9088 49.1566 21.3846 48.8042C20.9527 48.5139 21.1139 48.0933 20.5207 47.8471C20.1607 47.6977 19.1692 47.1507 19.1443 46.983C18.908 45.3943 19.2832 43.7225 20.1839 42.2087C20.6648 41.4004 21.465 40.6462 21.7945 39.8461Z" fill="url(#paint9_radial_153_56)"/>
<ellipse cx="50.0993" cy="47.03" rx="5.26829" ry="4.35082" fill="url(#paint10_radial_153_56)" fill-opacity="0.2"/>
<ellipse cx="31.4577" cy="46.4914" rx="5.26829" ry="4.35082" fill="url(#paint11_radial_153_56)" fill-opacity="0.2"/>
</g>
<path d="M41.7975 40.8657C41.6231 42.4092 41.3789 45.6409 41.7975 46.22" stroke="#553422" stroke-width="0.248855"/>
<path d="M34.0406 40.2688C35.0369 40.2043 36.3882 41.2206 36.9492 41.8462C36.0547 42.5195 35.14 42.5722 34.0406 42.5722C32.9603 42.5722 31.8944 42.2984 31.2197 41.4608C31.6333 41.0886 33.0083 40.3357 34.0406 40.2688Z" fill="white" fill-opacity="0.5"/>
<path d="M32.9016 41.3139C32.8942 42.0198 33.4698 42.5185 34.1998 42.5262C34.9298 42.5339 35.5377 42.0477 35.5451 41.3417C35.5526 40.6358 34.9668 40.0572 34.2368 40.0495C33.5069 40.0418 32.9091 40.6079 32.9016 41.3139Z" fill="#502E18"/>
<ellipse rx="0.593976" ry="0.594014" transform="matrix(-0.999944 -0.0105493 -0.0105493 0.999944 34.2177 41.2713)" fill="black"/>
<path d="M37.03 41.772C34.8525 39.6278 33.5106 39.648 30.8171 41.7726" stroke="#181818" stroke-width="0.269252"/>
<path d="M32.8613 39.6771C32.8613 39.6771 34.0965 40.0221 34.4067 40.0325L32.3997 40.4838L31.2382 41.3516L30.8194 41.7724L30.1088 41.116L30.8184 41.2611L30.4314 40.9171L30.9833 41.0461L30.8041 40.7235L31.2987 40.788L31.1338 40.5228L31.7207 40.5949C31.4492 40.3508 31.4205 40.3078 31.4205 40.3078C31.4205 40.3078 31.6337 40.2247 32.0157 40.3326C31.8545 40.0797 31.9041 40.2097 31.8363 40.0426C31.8233 40.0108 32.0886 40.0184 32.4511 40.063C32.3892 39.9273 32.3485 39.971 32.338 39.8849C32.334 39.8521 32.4341 39.9768 33.0261 39.9494C32.9186 39.8634 32.8613 39.6771 32.8613 39.6771Z" fill="#181818"/>
<path d="M30.8177 41.7725L31.37 41.3272C31.3952 41.5079 32.0883 42.1147 32.5176 42.3339C32.0761 42.3226 30.9229 42.0882 30.8177 41.7725Z" fill="#181818"/>
<path d="M33.4341 40.3301C33.4532 40.3514 31.8705 40.9307 31.4495 41.5623L30.8179 41.1973C31.4271 40.7888 32.9969 39.8427 33.4341 40.3301Z" fill="#181818"/>
<path d="M47.6469 40.5103C46.6506 40.4457 45.2993 41.4621 44.7383 42.0876C45.6328 42.761 46.5475 42.8248 47.6469 42.8248C48.7272 42.8248 49.7931 42.5399 50.4678 41.7023C50.0542 41.3301 48.6792 40.5771 47.6469 40.5103Z" fill="white" fill-opacity="0.5"/>
<path d="M48.7883 41.5551C48.7958 42.261 48.2201 42.7597 47.4901 42.7674C46.7602 42.7751 46.1523 42.2889 46.1448 41.583C46.1374 40.877 46.7231 40.2984 47.4531 40.2907C48.1831 40.283 48.7809 40.8491 48.7883 41.5551Z" fill="#502E18"/>
<ellipse cx="47.4693" cy="41.5128" rx="0.593976" ry="0.594014" transform="rotate(-0.604443 47.4693 41.5128)" fill="black"/>
<path d="M44.632 41.9839C47.1585 39.5612 48.6322 40.1944 50.8424 42.0878" stroke="#181818" stroke-width="0.269252"/>
<path d="M48.8238 39.928C48.8238 39.928 47.5885 40.273 47.2784 40.2835L49.2339 40.7738L50.4469 41.6026L50.8426 42.0875L51.5762 41.367L50.8666 41.5121L51.2537 41.168L50.7018 41.2971L50.881 40.9745L50.3864 41.039L50.5512 40.7738L49.9644 40.8459C50.2359 40.6018 50.2645 40.5588 50.2645 40.5588C50.2645 40.5588 50.0514 40.4756 49.6693 40.5836C49.8305 40.3307 49.7809 40.4607 49.8488 40.2936C49.8617 40.2617 49.5965 40.2694 49.234 40.314C49.2959 40.1783 49.3366 40.222 49.347 40.1359C49.351 40.1031 49.251 40.2277 48.659 40.2004C48.7665 40.1144 48.8238 39.928 48.8238 39.928Z" fill="#181818"/>
<path d="M50.7579 42.1916L50.2408 41.6788C50.2155 41.8595 49.4827 42.3951 49.0534 42.6143C49.4948 42.6031 50.5854 42.3507 50.7579 42.1916Z" fill="#181818"/>
<path d="M48.1068 40.5073C48.0876 40.5286 49.6941 41.0149 50.3248 42.0971L50.9341 41.6168C50.3248 41.2083 48.544 40.0199 48.1068 40.5073Z" fill="#181818"/>
<path d="M39.7994 56.2858C37.9061 56.2509 35.2177 56.031 32.941 55.0016C35.7085 55.5776 36.9915 55.6167 38.8406 55.5406C38.9983 55.5408 39.7993 55.806 39.7993 55.806C39.9626 55.7609 40.6468 55.5429 40.8188 55.5176C43.084 55.6634 44.5818 55.4521 47.0397 55.0192C45.0037 56.2736 41.6927 56.3208 39.7994 56.2858Z" fill="url(#paint12_radial_153_56)"/>
<path d="M39.897 56.4041C37.052 56.4097 34.8997 55.7926 33.2694 55.1047C35.5846 56.9539 36.6807 58.4272 39.7563 58.4735C42.8319 58.5198 44.1841 57.3515 46.2125 55.3517C44.7388 56.0875 42.7419 56.3984 39.897 56.4041Z" fill="url(#paint13_radial_153_56)"/>
<path d="M43.2815 38.4295L43.7455 39.5645C44.6509 39.2289 48.1624 38.2896 48.9892 38.377C49.8161 38.4644 50.875 38.8019 51.3607 39.1909L51.5575 38.9208C51.5575 38.9208 51.065 38.0422 49.4014 37.458C47.7377 36.8739 44.0791 38.1001 43.2815 38.4295Z" fill="#2C1902"/>
<path d="M38.2801 38.2706L37.9155 39.3944C36.9717 39.0274 33.3505 38.1925 32.4457 38.0326C31.6383 37.8898 28.8627 38.335 28.6047 38.5486L28.519 37.7674C28.519 37.7674 31.2943 37.0864 32.5612 37.0865C33.7024 37.0865 37.3221 38.0118 38.2801 38.2706Z" fill="#2C1902"/>
<path d="M32.6494 54.8591C36.7307 56.8788 43.4868 56.9749 47.2954 54.8398" stroke="#553422" stroke-width="0.248855"/>
<path d="M43.548 50.481C43.548 50.481 43.6389 51.0403 43.2326 51.3594C42.8262 51.6784 42.1427 51.34 41.5695 51.4731C40.9962 51.6062 41.1098 52.3876 39.8996 52.3876C38.6894 52.3876 38.919 51.6292 38.3083 51.3594C37.6961 51.0889 37.4537 51.5274 36.882 51.3594C36.3277 51.1964 36.1938 50.481 36.1938 50.481" stroke="#553422" stroke-width="0.248855"/>
<path d="M26.4663 68.612C37.0916 74.9702 45.9082 72.2608 50.8863 69.6115L71.4526 78.5107L40.2188 87.285L20.0562 79.5774C17.7657 73.273 15.8411 62.2538 26.4663 68.612Z" fill="url(#paint14_linear_153_56)"/>
<g filter="url(#filter2_d_153_56)">
<path d="M52.8949 69.5935L50.9868 68.8871C50.8674 68.8429 50.7345 68.8539 50.6239 68.9168C48.0098 70.4037 45.5246 71.7093 41.4793 71.7093C37.3835 71.7093 34.8374 70.9559 29.6134 68.8805C29.5125 68.8404 29.3986 68.8391 29.2973 68.8781L27.4387 69.5949C27.1233 69.7165 27.0663 70.1355 27.3456 70.3259C30.661 72.5858 35.7149 74.3705 41.4793 74.3705C46.694 74.3705 50.03 72.4321 52.9949 70.3435C53.2767 70.145 53.2181 69.7132 52.8949 69.5935Z" fill="url(#paint15_linear_153_56)"/>
</g>
<path d="M48.3364 30.4518C47.9079 25.3849 42.4201 23.1868 40.8384 23.3541L40.3725 22.7305C40.2746 22.9384 40.0141 23.3785 39.7561 23.476C39.4336 23.5978 38.086 24.4293 35.4125 25.3539C30.0868 27.1957 28.3985 34.4246 27.7553 39.6194C27.4127 42.3863 26.4963 42.5112 26.2883 44.7409C26.0802 46.9705 26.3171 50.2204 26.4963 50.9013C27.2188 54.7203 26.727 60.6694 27.8451 62.9525C28.4693 66.7533 30.6792 72.8852 29.3444 76.7536C28.5559 80.3088 28.9696 80.5299 28.9696 82.5769C29.9587 88.5405 24.289 102.014 22.9631 103.153L5.68359 99.0779C7.00246 93.8527 13.4734 64.6818 14.089 58.8074C15.0279 49.8461 20.454 30.5052 21.2203 28.28C22.2998 25.1453 28.1659 17.3992 33.1976 14.525C38.2294 11.6507 43.1106 12.3926 45.6695 12.8979C47.3754 13.2347 51.1026 16.1808 53.253 18.023C55.4033 19.8651 59.5821 30.6597 60.7791 33.7562C61.9761 36.8526 62.4641 45.4754 62.4354 47.1813C62.4067 48.8873 62.7579 53.5324 62.7579 55.0372C62.7579 57.3452 63.8445 63.9113 64.0911 64.6905C65.7087 69.8 66.7462 73.9241 69.7945 78.3387L74.9552 98.0688L55.3501 103.153L52.6591 86.1232L52.1568 69.0359L52.4651 58.4309L52.1568 54.1016C51.7268 52.797 51.4682 50.117 51.5829 49.1938C51.7262 48.0398 51.6187 41.7946 51.5829 41.2283C51.547 40.6621 51.1175 37.4796 50.7305 36.6625C50.3434 35.8453 48.6303 33.9265 48.3364 30.4518Z" fill="url(#paint16_linear_153_56)"/>
</g>
</g>
<defs>
<filter id="filter0_d_153_56" x="1.53091" y="11.3695" width="77.5769" height="99.0371" filterUnits="userSpaceOnUse" color-interpolation-filters="sRGB">
<feFlood flood-opacity="0" result="BackgroundImageFix"/>
<feColorMatrix in="SourceAlpha" type="matrix" values="0 0 0 0 0 0 0 0 0 0 0 0 0 0 0 0 0 0 127 0" result="hardAlpha"/>
<feOffset dy="3.10103"/>
<feGaussianBlur stdDeviation="2.07634"/>
<feComposite in2="hardAlpha" operator="out"/>
<feColorMatrix type="matrix" values="0 0 0 0 0 0 0 0 0 0 0 0 0 0 0 0 0 0 0.3 0"/>
<feBlend mode="normal" in2="BackgroundImageFix" result="effect1_dropShadow_153_56"/>
<feBlend mode="normal" in="SourceGraphic" in2="effect1_dropShadow_153_56" result="shape"/>
</filter>
<filter id="filter1_d_153_56" x="22.4975" y="20.4319" width="35.1095" height="49.7953" filterUnits="userSpaceOnUse" color-interpolation-filters="sRGB">
<feFlood flood-opacity="0" result="BackgroundImageFix"/>
<feColorMatrix in="SourceAlpha" type="matrix" values="0 0 0 0 0 0 0 0 0 0 0 0 0 0 0 0 0 0 127 0" result="hardAlpha"/>
<feOffset dy="1.67559"/>
<feGaussianBlur stdDeviation="1.22392"/>
<feComposite in2="hardAlpha" operator="out"/>
<feColorMatrix type="matrix" values="0 0 0 0 0.239216 0 0 0 0 0.0823529 0 0 0 0 0.00392157 0 0 0 0.3 0"/>
<feBlend mode="normal" in2="BackgroundImageFix" result="effect1_dropShadow_153_56"/>
<feBlend mode="normal" in="SourceGraphic" in2="effect1_dropShadow_153_56" result="shape"/>
</filter>
<filter id="filter2_d_153_56" x="27.1655" y="68.8496" width="26.0103" height="5.69321" filterUnits="userSpaceOnUse" color-interpolation-filters="sRGB">
<feFlood flood-opacity="0" result="BackgroundImageFix"/>
<feColorMatrix in="SourceAlpha" type="matrix" values="0 0 0 0 0 0 0 0 0 0 0 0 0 0 0 0 0 0 127 0" result="hardAlpha"/>
<feOffset dy="0.172211"/>
<feComposite in2="hardAlpha" operator="out"/>
<feColorMatrix type="matrix" values="0 0 0 0 0 0 0 0 0 0 0 0 0 0 0 0 0 0 0.13 0"/>
<feBlend mode="normal" in2="BackgroundImageFix" result="effect1_dropShadow_153_56"/>
<feBlend mode="normal" in="SourceGraphic" in2="effect1_dropShadow_153_56" result="shape"/>
</filter>
<linearGradient id="paint0_linear_153_56" x1="26.9471" y1="71.1583" x2="51.4863" y2="75.4264" gradientUnits="userSpaceOnUse">
<stop stop-color="#CD9E90"/>
<stop offset="0.535255" stop-color="#F0B7A5"/>
<stop offset="1" stop-color="#CD9E90"/>
</linearGradient>
<linearGradient id="paint1_linear_153_56" x1="25.0277" y1="48.1272" x2="53.1996" y2="56.4668" gradientUnits="userSpaceOnUse">
<stop offset="0.00961029" stop-color="#E6B8AA"/>
<stop offset="1" stop-color="#E2A896"/>
</linearGradient>
<radialGradient id="paint2_radial_153_56" cx="0" cy="0" r="1" gradientUnits="userSpaceOnUse" gradientTransform="translate(39.6368 49.749) rotate(5.26335) scale(4.68172 2.73023)">
<stop stop-color="#FFD7CA" stop-opacity="0.36"/>
<stop offset="1" stop-color="#F7A88E" stop-opacity="0"/>
</radialGradient>
<radialGradient id="paint3_radial_153_56" cx="0" cy="0" r="1" gradientUnits="userSpaceOnUse" gradientTransform="translate(28.8729 46.9232) rotate(48.9079) scale(5.3545 3.57746)">
<stop stop-color="#FAC8B0"/>
<stop offset="1" stop-color="#ECA685" stop-opacity="0"/>
</radialGradient>
<radialGradient id="paint4_radial_153_56" cx="0" cy="0" r="1" gradientUnits="userSpaceOnUse" gradientTransform="translate(48.7374 45.8485) rotate(90) scale(2.98178 6.43122)">
<stop stop-color="#EAAE90"/>
<stop offset="1" stop-color="#EC9D76" stop-opacity="0"/>
</radialGradient>
<radialGradient id="paint5_radial_153_56" cx="0" cy="0" r="1" gradientUnits="userSpaceOnUse" gradientTransform="translate(34.6301 41.3326) rotate(86.6493) scale(3.06587 4.52625)">
<stop stop-color="#F0C3B7"/>
<stop offset="1" stop-color="#F0C3B7" stop-opacity="0"/>
</radialGradient>
<radialGradient id="paint6_radial_153_56" cx="0" cy="0" r="1" gradientUnits="userSpaceOnUse" gradientTransform="translate(47.6188 39.6701) rotate(90) scale(2.10732 4.71638)">
<stop stop-color="#F0C3B7"/>
<stop offset="1" stop-color="#F0C3B7" stop-opacity="0"/>
</radialGradient>
<radialGradient id="paint7_radial_153_56" cx="0" cy="0" r="1" gradientUnits="userSpaceOnUse" gradientTransform="translate(37.2192 63.3582) rotate(50.5162) scale(6.0102 4.22573)">
<stop stop-color="#FADAD3" stop-opacity="0.43"/>
<stop offset="0.761299" stop-color="#ECA685" stop-opacity="0"/>
</radialGradient>
<radialGradient id="paint8_radial_153_56" cx="0" cy="0" r="1" gradientUnits="userSpaceOnUse" gradientTransform="translate(29.0594 39.3664) rotate(83.0442) scale(2.54706 3.41222)">
<stop stop-color="#FFEFEB" stop-opacity="0.78"/>
<stop offset="1" stop-color="#EBB1A1" stop-opacity="0"/>
</radialGradient>
<radialGradient id="paint9_radial_153_56" cx="0" cy="0" r="1" gradientUnits="userSpaceOnUse" gradientTransform="translate(26.3576 45.7914) rotate(97.695) scale(8.17704 7.79412)">
<stop stop-color="#FDD7CC" stop-opacity="0.9"/>
<stop offset="1" stop-color="#EBB1A1" stop-opacity="0"/>
</radialGradient>
<radialGradient id="paint10_radial_153_56" cx="0" cy="0" r="1" gradientUnits="userSpaceOnUse" gradientTransform="translate(50.0993 47.03) rotate(90) scale(4.35082 5.26829)">
<stop stop-color="#FF727A"/>
<stop offset="1" stop-color="#FF727A" stop-opacity="0"/>
</radialGradient>
<radialGradient id="paint11_radial_153_56" cx="0" cy="0" r="1" gradientUnits="userSpaceOnUse" gradientTransform="translate(31.4577 46.4914) rotate(90) scale(4.35082 5.26829)">
<stop stop-color="#FF727A"/>
<stop offset="1" stop-color="#FF727A" stop-opacity="0"/>
</radialGradient>
<radialGradient id="paint12_radial_153_56" cx="0" cy="0" r="1" gradientUnits="userSpaceOnUse" gradientTransform="translate(39.521 55.3804) rotate(-84.6601) scale(0.379302 5.36514)">
<stop stop-color="#F4857E"/>
<stop offset="1" stop-color="#C16E69"/>
</radialGradient>
<radialGradient id="paint13_radial_153_56" cx="0" cy="0" r="1" gradientUnits="userSpaceOnUse" gradientTransform="translate(39.1798 56.9796) rotate(89.5271) scale(0.991472 5.20187)">
<stop stop-color="#F28C86"/>
<stop offset="1" stop-color="#E6847E"/>
</radialGradient>
<linearGradient id="paint14_linear_153_56" x1="31.8482" y1="80.1157" x2="46.677" y2="83.585" gradientUnits="userSpaceOnUse">
<stop stop-color="#D0CECD"/>
<stop offset="1" stop-color="#ABABAB"/>
</linearGradient>
<linearGradient id="paint15_linear_153_56" x1="32.3182" y1="71.69" x2="51.141" y2="71.69" gradientUnits="userSpaceOnUse">
<stop stop-color="#C9C9C9"/>
<stop offset="1" stop-color="#979797"/>
</linearGradient>
<linearGradient id="paint16_linear_153_56" x1="32.6215" y1="12.4211" x2="47.8251" y2="66.4988" gradientUnits="userSpaceOnUse">
<stop stop-color="#3D1804"/>
<stop offset="1" stop-color="#200E04"/>
</linearGradient>
</defs>
</svg>
