<svg xmlns="http://www.w3.org/2000/svg" width="37" height="37" fill="none" class="attachment-200101 logo-mendix-mark"><path fill="#fff1f2cc" d="M17.697 20.686c-1.548 0-2.596.743-3.014 1.588a.04.04 0 0 1-.07 0c-.433-.877-1.366-1.588-2.752-1.588-1.128 0-2.012.423-2.636 1.397a.034.034 0 0 1-.063-.014l-.121-.996a.216.216 0 0 0-.214-.19H7.063a.216.216 0 0 0-.215.216v8.765c0 .12.096.216.215.216h2.298a.216.216 0 0 0 .215-.216v-4.366c0-1.412.51-2.398 1.66-2.398.855 0 1.349.46 1.349 1.905v4.86c0 .118.096.215.215.215h2.281c.12 0 .216-.097.216-.216v-4.366c0-1.429.51-2.398 1.66-2.398.855 0 1.348.46 1.348 1.905v4.86c0 .118.097.215.216.215h2.297a.216.216 0 0 0 .216-.216v-5.893c0-.969-.51-3.285-3.337-3.285Z"/><path fill="#fff1f2cc" d="M27.285 25.544a.216.216 0 0 1-.004-.226l2.45-4.109a.215.215 0 0 0-.185-.325h-2.658a.216.216 0 0 0-.194.122l-1.095 2.28a.216.216 0 0 1-.389 0l-1.095-2.28a.216.216 0 0 0-.194-.122h-2.657a.215.215 0 0 0-.186.325l2.45 4.109c.042.07.04.158-.003.226l-2.692 4.204a.216.216 0 0 0 .182.332h2.683c.08 0 .152-.044.19-.113l1.327-2.445a.216.216 0 0 1 .379 0l1.327 2.445c.038.07.11.113.19.113h2.683c.17 0 .273-.189.182-.332l-2.691-4.204Z"/><rect width="35" height="35" x="1" y="1" stroke="#fff1f2cc" stroke-width="2" rx="4.214"/></svg>