<svg width="32" height="32" viewBox="0 0 32 32" fill="none" xmlns="http://www.w3.org/2000/svg">
<g clip-path="url(#clip0_142_74)">
<circle cx="20.571" cy="10.476" r="1.57403" transform="rotate(45 20.571 10.476)" fill="black"/>
<path d="M6.2035 18.1186C8.16409 17.8867 10.6405 17.3131 11.619 17.25C12.017 17.2243 12.2863 16.4642 12.619 15.2499C12.8945 14.2446 14.1191 12.7499 13.619 12.75L8.5022 12.9575C8.43266 12.9603 8.3703 13.0011 8.3399 13.0637L6.01542 17.8512C5.95087 17.9842 6.05672 18.136 6.2035 18.1186Z" fill="black" stroke="black" stroke-width="1.46417"/>
<path d="M13.2185 25.1341C13.4532 23.1274 14.0558 20.2292 14.119 19.25C14.1447 18.852 15.4048 18.5827 16.6191 18.25C17.4468 18.0232 17.7636 17.8367 18.1283 17.6821C18.2477 17.6316 18.3752 17.722 18.3752 17.8517L18.3753 22.8298C18.3753 22.9022 18.334 22.9682 18.2689 22.9998L13.4861 25.3219C13.3531 25.3865 13.2013 25.2809 13.2185 25.1341Z" fill="black" stroke="black" stroke-width="1.46417"/>
<path d="M5.85436 25.7233C5.48698 21.749 7.47414 19.2609 9.89546 21.6822C11.9661 23.7528 9.47799 25.8402 5.85436 25.7233Z" stroke="black" stroke-width="1.35"/>
<path d="M25.619 5.75C25.619 8.75 25.119 16.75 13.619 18.75L12.119 17.25C15.619 6.25 21.619 5.75 25.619 5.75Z" stroke="black" stroke-width="1.35"/>
</g>
<defs>
<clipPath id="clip0_142_74">
<rect width="32" height="32" fill="white"/>
</clipPath>
</defs>
</svg>
