<svg width="614" height="614" viewBox="0 0 614 614" fill="none" xmlns="http://www.w3.org/2000/svg">
<g clip-path="url(#clip0_142_74)">
<path d="M303.06 173.659L286.053 162.213L303.06 173.659ZM515.545 97.6453L535.442 92.7093L532.469 80.7222L520.482 77.7484L515.545 97.6453ZM238.36 340.183L218.149 343.615L220.615 358.135L235.162 360.432L238.36 340.183ZM273.008 374.831L252.759 378.028L255.056 392.576L269.576 395.042L273.008 374.831ZM439.531 310.131L450.978 327.137L439.531 310.131ZM320.066 185.106C346.286 146.151 382.944 126.714 418.994 118.227C455.455 109.644 490.411 112.531 510.609 117.542L520.482 77.7484C494.6 71.3277 453.012 68.0985 409.599 78.3183C365.776 88.6348 319.231 112.921 286.053 162.213L320.066 185.106ZM258.57 336.751C257.78 332.095 258.035 316.209 266.746 289.301C275.231 263.09 291.293 227.855 320.066 185.106L286.053 162.213C255.43 207.71 237.55 246.368 227.739 276.673C218.154 306.28 215.757 329.532 218.149 343.615L258.57 336.751ZM275.836 337.355C264.129 325.647 248.653 321.054 241.557 319.934L235.162 360.432C235.154 360.431 235.317 360.457 235.645 360.534C235.962 360.608 236.378 360.717 236.875 360.866C237.879 361.167 239.086 361.596 240.364 362.162C243.045 363.349 245.317 364.818 246.845 366.346L275.836 337.355ZM246.845 366.346C248.373 367.874 249.842 370.146 251.029 372.827C251.595 374.104 252.024 375.311 252.325 376.316C252.474 376.813 252.583 377.229 252.657 377.546C252.734 377.874 252.76 378.036 252.759 378.028L293.257 371.634C292.136 364.538 287.544 349.062 275.836 337.355L246.845 366.346ZM269.576 395.042C283.659 397.433 306.91 395.037 336.518 385.452C366.823 375.641 405.481 357.761 450.978 327.137L428.085 293.124C385.335 321.898 350.1 337.959 323.89 346.445C296.982 355.156 281.095 355.411 276.44 354.62L269.576 395.042ZM450.978 327.137C500.27 293.96 524.556 247.415 534.872 203.592C545.092 160.179 541.863 118.591 535.442 92.7093L495.649 102.581C500.659 122.78 503.547 157.736 494.963 194.197C486.477 230.247 467.04 266.905 428.085 293.124L450.978 327.137Z" fill="black"/>
<circle cx="407.425" cy="206.607" r="43.5" transform="rotate(45 407.425 206.607)" fill="black"/>
<path d="M107.653 357.181C149.219 352.625 202.152 343.708 222.87 342.371C231.297 341.828 232.443 313.987 239.487 288.278C244.377 270.432 253.677 254.4 258.693 243.456C259.905 240.812 257.768 238.034 254.873 238.311L156.164 247.759C154.775 247.891 153.556 248.738 152.946 249.993L103.668 351.488C102.301 354.303 104.542 357.522 107.653 357.181Z" fill="black" stroke="black" stroke-width="31"/>
<path d="M256.146 505.674C260.702 464.109 269.619 411.175 270.956 390.457C271.499 382.03 299.34 380.884 325.049 373.84C342.895 368.95 358.927 359.651 369.871 354.634C372.515 353.422 375.293 355.559 375.016 358.454L365.569 457.164C365.436 458.552 364.589 459.772 363.334 460.381L261.839 509.66C259.024 511.027 255.805 508.785 256.146 505.674Z" fill="black" stroke="black" stroke-width="31"/>
<path d="M100.259 518.159C92.4804 434.013 134.553 381.334 185.819 432.599C229.659 476.439 176.98 520.634 100.259 518.159Z" stroke="black" stroke-width="41"/>
</g>
<defs>
<clipPath id="clip0_142_74">
<rect width="614" height="614" fill="white"/>
</clipPath>
</defs>
</svg>
